# Exported from Wings 3D 1.5.3
mtllib Newcomers_Guild.mtl
o Cube5
#8 vertices, 6 faces
v -7.00000000 -0.50000000 -26.50000000
v -7.00000000 -0.50000000 -13.50000000
v -7.00000000 0.0000000e+0 -26.50000000
v -7.00000000 0.0000000e+0 -13.50000000
v 7.00000000 -0.50000000 -26.50000000
v 7.00000000 -0.50000000 -13.50000000
v 7.00000000 0.0000000e+0 -26.50000000
v 7.00000000 0.0000000e+0 -13.50000000
vn -0.57735027 -0.57735027 -0.57735027
vn -0.57735027 -0.57735027 0.57735027
vn -0.57735027 0.57735027 -0.57735027
vn -0.57735027 0.57735027 0.57735027
vn 0.57735027 -0.57735027 -0.57735027
vn 0.57735027 -0.57735027 0.57735027
vn 0.57735027 0.57735027 -0.57735027
vn 0.57735027 0.57735027 0.57735027
g Cube5_default
usemtl default
s 1
f 1//1 5//5 6//6 2//2
f 2//2 4//4 3//3 1//1
f 2//2 6//6 8//8 4//4
f 3//3 7//7 5//5 1//1
f 4//4 8//8 7//7 3//3
f 5//5 7//7 8//8 6//6
o Cube4
#8 vertices, 6 faces
v 13.50000000 -0.50000000 -7.00000000
v 13.50000000 -0.50000000 13.50000000
v 13.50000000 0.0000000e+0 -7.00000000
v 13.50000000 0.0000000e+0 13.50000000
v 25.50000000 -0.50000000 -7.00000000
v 25.50000000 -0.50000000 13.50000000
v 25.50000000 0.0000000e+0 -7.00000000
v 25.50000000 0.0000000e+0 13.50000000
vn -0.57735027 -0.57735027 -0.57735027
vn -0.57735027 -0.57735027 0.57735027
vn -0.57735027 0.57735027 -0.57735027
vn -0.57735027 0.57735027 0.57735027
vn 0.57735027 -0.57735027 -0.57735027
vn 0.57735027 -0.57735027 0.57735027
vn 0.57735027 0.57735027 -0.57735027
vn 0.57735027 0.57735027 0.57735027
g Cube4_default
usemtl default
s 1
f 9//9 13//13 14//14 10//10
f 10//10 12//12 11//11 9//9
f 10//10 14//14 16//16 12//12
f 11//11 15//15 13//13 9//9
f 12//12 16//16 15//15 11//11
f 13//13 15//15 16//16 14//14
o Cube3
#8 vertices, 6 faces
v -25.50000000 -0.50000000 -7.00000000
v -25.50000000 -0.50000000 7.00000000
v -25.50000000 0.0000000e+0 -7.00000000
v -25.50000000 0.0000000e+0 7.00000000
v -13.50000000 -0.50000000 -7.00000000
v -13.50000000 -0.50000000 7.00000000
v -13.50000000 0.0000000e+0 -7.00000000
v -13.50000000 0.0000000e+0 7.00000000
vn -0.57735027 -0.57735027 -0.57735027
vn -0.57735027 -0.57735027 0.57735027
vn -0.57735027 0.57735027 -0.57735027
vn -0.57735027 0.57735027 0.57735027
vn 0.57735027 -0.57735027 -0.57735027
vn 0.57735027 -0.57735027 0.57735027
vn 0.57735027 0.57735027 -0.57735027
vn 0.57735027 0.57735027 0.57735027
g Cube3_default
usemtl default
s 1
f 17//17 21//21 22//22 18//18
f 18//18 20//20 19//19 17//17
f 18//18 22//22 24//24 20//20
f 19//19 23//23 21//21 17//17
f 20//20 24//24 23//23 19//19
f 21//21 23//23 24//24 22//22
o Cube2
#8 vertices, 6 faces
v -7.00000000 -0.50000000 13.50000000
v -7.00000000 -0.50000000 25.50000000
v -7.00000000 0.0000000e+0 13.50000000
v -7.00000000 0.0000000e+0 25.50000000
v 25.50000000 -0.50000000 13.50000000
v 25.50000000 -0.50000000 25.50000000
v 25.50000000 0.0000000e+0 13.50000000
v 25.50000000 0.0000000e+0 25.50000000
vn -0.57735027 -0.57735027 -0.57735027
vn -0.57735027 -0.57735027 0.57735027
vn -0.57735027 0.57735027 -0.57735027
vn -0.57735027 0.57735027 0.57735027
vn 0.57735027 -0.57735027 -0.57735027
vn 0.57735027 -0.57735027 0.57735027
vn 0.57735027 0.57735027 -0.57735027
vn 0.57735027 0.57735027 0.57735027
g Cube2_default
usemtl default
s 1
f 25//25 29//29 30//30 26//26
f 26//26 28//28 27//27 25//25
f 26//26 30//30 32//32 28//28
f 27//27 31//31 29//29 25//25
f 28//28 32//32 31//31 27//27
f 29//29 31//31 32//32 30//30
o Cube1
#8 vertices, 6 faces
v -13.50000000 -0.50000000 -13.50000000
v -13.50000000 -0.50000000 13.50000000
v -13.50000000 0.0000000e+0 -13.50000000
v -13.50000000 0.0000000e+0 13.50000000
v 13.50000000 -0.50000000 -13.50000000
v 13.50000000 -0.50000000 13.50000000
v 13.50000000 0.0000000e+0 -13.50000000
v 13.50000000 0.0000000e+0 13.50000000
vn -0.57735027 -0.57735027 -0.57735027
vn -0.57735027 -0.57735027 0.57735027
vn -0.57735027 0.57735027 -0.57735027
vn -0.57735027 0.57735027 0.57735027
vn 0.57735027 -0.57735027 -0.57735027
vn 0.57735027 -0.57735027 0.57735027
vn 0.57735027 0.57735027 -0.57735027
vn 0.57735027 0.57735027 0.57735027
g Cube1_default
usemtl default
s 1
f 33//33 37//37 38//38 34//34
f 34//34 36//36 35//35 33//33
f 34//34 38//38 40//40 36//36
f 35//35 39//39 37//37 33//33
f 36//36 40//40 39//39 35//35
f 37//37 39//39 40//40 38//38
